<svg width="108" height="24" viewBox="0 0 108 24" fill="none" xmlns="http://www.w3.org/2000/svg">
<path d="M7.07796 2.18304C8.38481 1.99066 9.76918 3.45045 10.1679 5.46473C10.5666 7.4677 9.84671 9.25566 8.53986 9.45935C7.24409 9.66304 5.84864 8.20325 5.43887 6.18897C5.02909 4.186 5.77112 2.39805 7.07796 2.18304ZM14.9966 2.18304C16.3145 2.39805 17.0454 4.186 16.6578 6.18897C16.237 8.20325 14.8526 9.66304 13.5458 9.45935C12.2278 9.25566 11.508 7.4677 11.9177 5.46473C12.3164 3.45045 13.7008 1.99066 14.9966 2.18304ZM1.15285 7.38849C2.4154 6.83399 4.13202 7.84113 5.02909 9.59514C5.87079 11.3831 5.58284 13.2616 4.33137 13.8161C3.0799 14.3706 1.37435 13.3748 0.499426 11.5981C-0.375498 9.82147 -0.0653983 7.93166 1.15285 7.38849ZM21.0878 7.38849C22.3061 7.93166 22.6162 9.82147 21.7412 11.5981C20.8663 13.3748 19.1608 14.3706 17.9093 13.8161C16.6578 13.2616 16.3699 11.3831 17.2116 9.59514C18.1086 7.84113 19.8253 6.83399 21.0878 7.38849Z" fill="#FF816B"/>
<g clip-path="url(#clip0_750_1668)">
<path fill-rule="evenodd" clip-rule="evenodd" d="M4.92237 17.0001C4.89323 18.408 5.64229 19.822 6.84702 20.4362C7.4945 20.7671 8.24399 20.8378 8.94192 20.6339C9.57605 20.4567 10.2193 20.0706 10.8477 19.4497C11.4308 20.1133 12.0454 20.5429 12.6654 20.7651C13.3473 21.0177 14.0999 20.9999 14.769 20.7154C16.014 20.1876 16.8608 18.8298 16.9308 17.4233L16.9311 17.4162C17.0034 15.3641 15.8471 13.5029 14.5987 12.1809C14.0321 11.5769 13.3988 11.0392 12.711 10.578C12.4168 10.3842 12.1382 10.2274 11.8901 10.1154C11.6534 10.009 11.4043 9.92545 11.1837 9.91768C10.9631 9.9099 10.7096 9.97578 10.466 10.0652C10.2098 10.1586 9.92082 10.2953 9.6146 10.468C8.89563 10.8798 8.22574 11.3719 7.61779 11.9348C6.27944 13.1657 4.99495 14.9409 4.92265 16.9921L4.92237 17.0001Z" fill="#FF816B"/>
</g>
<path d="M24.8167 5.642C24.9311 5.642 25.0517 5.67376 25.1788 5.73727C25.3185 5.80079 25.4265 5.88337 25.5027 5.985L30.5525 13.6263L29.8855 13.6073L34.9924 5.985C35.1576 5.74363 35.3736 5.62929 35.6403 5.642C35.8436 5.6547 36.0214 5.73092 36.1739 5.87066C36.3263 6.01041 36.4026 6.19461 36.4026 6.42328V18.2187C36.4026 18.4347 36.3263 18.6189 36.1739 18.7713C36.0214 18.9238 35.8309 19 35.6022 19C35.3736 19 35.183 18.9238 35.0306 18.7713C34.8781 18.6189 34.8019 18.4347 34.8019 18.2187V7.87151L35.2783 7.96678L30.7811 14.8078C30.7049 14.8967 30.6096 14.9729 30.4953 15.0364C30.3937 15.0999 30.2857 15.1317 30.1714 15.1317C30.057 15.1317 29.9427 15.0999 29.8284 15.0364C29.714 14.9729 29.6187 14.8967 29.5425 14.8078L25.1026 7.96678L25.5027 7.47134V18.2187C25.5027 18.4347 25.4329 18.6189 25.2931 18.7713C25.1534 18.9238 24.9755 19 24.7596 19C24.5436 19 24.3657 18.9238 24.226 18.7713C24.099 18.6189 24.0354 18.4347 24.0354 18.2187V6.42328C24.0354 6.22002 24.1053 6.04216 24.2451 5.88972C24.3975 5.72457 24.5881 5.642 24.8167 5.642ZM47.5924 9.05296C47.8084 9.05296 47.9862 9.12918 48.1259 9.28162C48.2784 9.42136 48.3546 9.59922 48.3546 9.81518V18.2187C48.3546 18.4347 48.2784 18.6189 48.1259 18.7713C47.9862 18.9238 47.8084 19 47.5924 19C47.3637 19 47.1795 18.9238 47.0398 18.7713C46.9 18.6189 46.8302 18.4347 46.8302 18.2187V16.4084L47.1922 16.3703C47.1922 16.6498 47.0969 16.9547 46.9064 17.285C46.7158 17.6153 46.4554 17.9265 46.1251 18.2187C45.7948 18.4982 45.401 18.7332 44.9437 18.9238C44.499 19.1016 44.0163 19.1906 43.4954 19.1906C42.6316 19.1906 41.8566 18.9682 41.1706 18.5236C40.4846 18.0663 39.9384 17.4501 39.5319 16.6752C39.138 15.9003 38.9411 15.0174 38.9411 14.0265C38.9411 13.0229 39.138 12.14 39.5319 11.3777C39.9384 10.6028 40.4846 9.99939 41.1706 9.56746C41.8566 9.12283 42.6189 8.90051 43.4573 8.90051C44.0036 8.90051 44.5117 8.98944 44.9818 9.16729C45.4518 9.34514 45.8583 9.58651 46.2013 9.8914C46.557 10.1963 46.8302 10.5329 47.0207 10.9014C47.224 11.2698 47.3256 11.6382 47.3256 12.0066L46.8302 11.8922V9.81518C46.8302 9.59922 46.9 9.42136 47.0398 9.28162C47.1795 9.12918 47.3637 9.05296 47.5924 9.05296ZM43.6669 17.7804C44.3021 17.7804 44.8611 17.6153 45.3438 17.285C45.8393 16.9547 46.2204 16.5101 46.4872 15.9511C46.7666 15.3794 46.9064 14.7379 46.9064 14.0265C46.9064 13.3278 46.7666 12.6989 46.4872 12.14C46.2204 11.5683 45.8393 11.1237 45.3438 10.8061C44.8611 10.4758 44.3021 10.3106 43.6669 10.3106C43.0444 10.3106 42.4855 10.4694 41.99 10.787C41.5073 11.1046 41.1262 11.5429 40.8467 12.1019C40.5672 12.6608 40.4275 13.3024 40.4275 14.0265C40.4275 14.7379 40.5609 15.3794 40.8276 15.9511C41.1071 16.5101 41.4882 16.9547 41.971 17.285C42.4664 17.6153 43.0317 17.7804 43.6669 17.7804ZM50.7986 9.2054H55.2767C55.48 9.2054 55.6451 9.27527 55.7722 9.41501C55.9119 9.55475 55.9818 9.7199 55.9818 9.91046C55.9818 10.1137 55.9119 10.2852 55.7722 10.425C55.6451 10.552 55.48 10.6155 55.2767 10.6155H50.7986C50.6081 10.6155 50.4429 10.5456 50.3032 10.4059C50.1635 10.2662 50.0936 10.0947 50.0936 9.8914C50.0936 9.70085 50.1635 9.54205 50.3032 9.41501C50.4429 9.27527 50.6081 9.2054 50.7986 9.2054ZM52.7995 6.61383C53.0155 6.61383 53.1933 6.69006 53.333 6.8425C53.4728 6.98224 53.5427 7.1601 53.5427 7.37606V16.5799C53.5427 16.8848 53.5871 17.1135 53.676 17.2659C53.765 17.4184 53.8793 17.5264 54.019 17.5899C54.1715 17.6407 54.3176 17.6661 54.4573 17.6661C54.5844 17.6661 54.6923 17.647 54.7813 17.6089C54.8829 17.5581 54.9972 17.5327 55.1243 17.5327C55.2513 17.5327 55.3656 17.5962 55.4673 17.7233C55.5816 17.8376 55.6388 17.9901 55.6388 18.1806C55.6388 18.4093 55.5054 18.6062 55.2386 18.7713C54.9718 18.9238 54.6733 19 54.343 19C54.1651 19 53.9428 18.9873 53.676 18.9619C53.422 18.9365 53.1679 18.8539 52.9138 18.7142C52.6597 18.5744 52.4438 18.3458 52.2659 18.0282C52.1008 17.6979 52.0182 17.2405 52.0182 16.6562V7.37606C52.0182 7.1601 52.0944 6.98224 52.2469 6.8425C52.3993 6.69006 52.5835 6.61383 52.7995 6.61383ZM62.3921 8.90051C63.04 8.90051 63.6243 8.97038 64.1452 9.11012C64.666 9.24986 65.0789 9.44042 65.3838 9.68179C65.6887 9.92316 65.8411 10.1963 65.8411 10.5012C65.8411 10.6663 65.784 10.8251 65.6696 10.9776C65.5553 11.13 65.4029 11.2062 65.2123 11.2062C65.0344 11.2062 64.8884 11.1745 64.774 11.111C64.6724 11.0474 64.5708 10.9649 64.4691 10.8632C64.3802 10.7616 64.2532 10.6727 64.088 10.5965C63.9356 10.5075 63.7133 10.4377 63.4211 10.3869C63.1289 10.336 62.8367 10.3106 62.5445 10.3106C61.8458 10.3106 61.2297 10.4758 60.6961 10.8061C60.1753 11.1364 59.7624 11.581 59.4575 12.14C59.1526 12.6989 59.0002 13.3341 59.0002 14.0455C59.0002 14.7569 59.1463 15.3921 59.4384 15.9511C59.7306 16.5101 60.1371 16.9547 60.658 17.285C61.1789 17.6153 61.7823 17.7804 62.4683 17.7804C62.9129 17.7804 63.2686 17.7423 63.5354 17.6661C63.8022 17.5899 64.0245 17.501 64.2024 17.3993C64.431 17.2723 64.6025 17.1453 64.7169 17.0182C64.8439 16.8912 65.009 16.8277 65.2123 16.8277C65.4283 16.8277 65.5934 16.8975 65.7077 17.0373C65.8348 17.177 65.8983 17.3485 65.8983 17.5518C65.8983 17.7804 65.7395 18.0218 65.4219 18.2759C65.1043 18.53 64.6724 18.7459 64.1261 18.9238C63.5926 19.1016 62.9828 19.1906 62.2968 19.1906C61.3313 19.1906 60.4865 18.9682 59.7624 18.5236C59.0383 18.0663 58.473 17.4501 58.0664 16.6752C57.6726 15.8876 57.4757 15.011 57.4757 14.0455C57.4757 13.08 57.679 12.2098 58.0855 11.4349C58.5047 10.66 59.0827 10.0438 59.8196 9.58651C60.5564 9.12918 61.4139 8.90051 62.3921 8.90051ZM72.6546 8.99579C73.493 8.99579 74.1536 9.17999 74.6364 9.5484C75.1318 9.90411 75.4812 10.3869 75.6844 10.9966C75.9004 11.5937 76.0084 12.2607 76.0084 12.9975V18.2187C76.0084 18.4347 75.9321 18.6189 75.7797 18.7713C75.64 18.9238 75.4621 19 75.2461 19C75.0302 19 74.846 18.9238 74.6935 18.7713C74.5538 18.6189 74.4839 18.4347 74.4839 18.2187V12.9975C74.4839 12.5147 74.414 12.0828 74.2743 11.7017C74.1346 11.3079 73.8995 10.9966 73.5692 10.768C73.2516 10.5266 72.8134 10.4059 72.2544 10.4059C71.7335 10.4059 71.2572 10.5266 70.8252 10.768C70.3933 10.9966 70.0503 11.3079 69.7962 11.7017C69.5422 12.0828 69.4151 12.5147 69.4151 12.9975V18.2187C69.4151 18.4347 69.3389 18.6189 69.1864 18.7713C69.0467 18.9238 68.8689 19 68.6529 19C68.4369 19 68.2527 18.9238 68.1003 18.7713C67.9605 18.6189 67.8907 18.4347 67.8907 18.2187V5.66105C67.8907 5.44509 67.9605 5.26724 68.1003 5.12749C68.2527 4.97505 68.4369 4.89883 68.6529 4.89883C68.8816 4.89883 69.0658 4.97505 69.2055 5.12749C69.3452 5.26724 69.4151 5.44509 69.4151 5.66105V11.3587L69.034 11.7779C69.0975 11.4476 69.2373 11.1173 69.4532 10.787C69.6692 10.444 69.9423 10.1391 70.2726 9.87235C70.6029 9.60557 70.9713 9.39596 71.3778 9.24351C71.7844 9.07836 72.2099 8.99579 72.6546 8.99579Z" fill="#FF816B"/>
<path d="M84.3398 5.66105C85.0131 5.66105 85.6356 5.84526 86.2073 6.21367C86.779 6.56937 87.2363 7.05847 87.5793 7.68095C87.9223 8.30343 88.0938 9.00214 88.0938 9.77707C88.0938 10.552 87.9223 11.2571 87.5793 11.8922C87.2363 12.5147 86.779 13.0165 86.2073 13.3976C85.6356 13.7661 85.0131 13.9503 84.3398 13.9503H80.6621L80.8146 13.6454V18.0282C80.8146 18.3076 80.7256 18.5427 80.5478 18.7332C80.3826 18.9111 80.1603 19 79.8808 19C79.614 19 79.3917 18.9111 79.2139 18.7332C79.0487 18.5427 78.9662 18.3076 78.9662 18.0282V6.63289C78.9662 6.35341 79.0614 6.12474 79.252 5.94689C79.4425 5.75633 79.6712 5.66105 79.938 5.66105H84.3398ZM84.3398 12.1209C84.6701 12.1209 84.9687 12.0129 85.2355 11.797C85.5149 11.581 85.7373 11.2952 85.9024 10.9395C86.0803 10.5838 86.1692 10.1963 86.1692 9.77707C86.1692 9.35785 86.0803 8.97673 85.9024 8.63373C85.7373 8.29073 85.5149 8.0176 85.2355 7.81434C84.9687 7.59838 84.6701 7.49039 84.3398 7.49039H80.624L80.8146 7.20456V12.3686L80.6431 12.1209H84.3398ZM94.6836 19.1906C93.6292 19.1906 92.7146 18.9746 91.9396 18.5427C91.1647 18.098 90.5613 17.4946 90.1293 16.7324C89.7101 15.9574 89.5005 15.0745 89.5005 14.0836C89.5005 12.9657 89.7228 12.0129 90.1674 11.2253C90.6248 10.425 91.2155 9.81518 91.9396 9.39596C92.6637 8.96403 93.4323 8.74807 94.2454 8.74807C94.8678 8.74807 95.4586 8.8751 96.0175 9.12918C96.5765 9.37055 97.0719 9.71355 97.5039 10.1582C97.9485 10.5901 98.2979 11.1046 98.5519 11.7017C98.806 12.2861 98.9394 12.9276 98.9521 13.6263C98.9394 13.8804 98.8378 14.09 98.6472 14.2551C98.4566 14.4203 98.2343 14.5029 97.9803 14.5029H90.5676L90.1103 12.8831H97.2752L96.9131 13.2261V12.7498C96.8877 12.3051 96.7416 11.9177 96.4749 11.5874C96.2081 11.2444 95.8778 10.9839 95.484 10.8061C95.0902 10.6155 94.6773 10.5202 94.2454 10.5202C93.8642 10.5202 93.4958 10.5838 93.1401 10.7108C92.7971 10.8251 92.4859 11.0157 92.2064 11.2825C91.9396 11.5492 91.7237 11.905 91.5585 12.3496C91.4061 12.7815 91.3298 13.3214 91.3298 13.9693C91.3298 14.668 91.4759 15.2778 91.7681 15.7987C92.0603 16.3195 92.4541 16.726 92.9496 17.0182C93.445 17.2977 93.9913 17.4374 94.5884 17.4374C95.0584 17.4374 95.4459 17.393 95.7507 17.304C96.0556 17.2024 96.3097 17.0817 96.513 16.942C96.7162 16.8022 96.8941 16.6689 97.0465 16.5418C97.2371 16.4275 97.4276 16.3703 97.6182 16.3703C97.8469 16.3703 98.0374 16.4529 98.1899 16.618C98.3423 16.7705 98.4185 16.9547 98.4185 17.1707C98.4185 17.4501 98.2788 17.7042 97.9993 17.9329C97.6563 18.2632 97.1799 18.5554 96.5701 18.8094C95.9731 19.0635 95.3442 19.1906 94.6836 19.1906ZM100.973 9.09107H105.451C105.705 9.09107 105.914 9.17999 106.08 9.35785C106.257 9.52299 106.346 9.73261 106.346 9.98668C106.346 10.2281 106.257 10.4313 106.08 10.5965C105.914 10.7616 105.705 10.8442 105.451 10.8442H100.973C100.719 10.8442 100.503 10.7616 100.325 10.5965C100.16 10.4186 100.077 10.209 100.077 9.96763C100.077 9.71355 100.16 9.50394 100.325 9.33879C100.503 9.17364 100.719 9.09107 100.973 9.09107ZM102.973 6.61383C103.253 6.61383 103.482 6.70911 103.659 6.89967C103.837 7.07752 103.926 7.30619 103.926 7.58567V16.4275C103.926 16.6562 103.964 16.8404 104.041 16.9801C104.117 17.1198 104.218 17.2151 104.345 17.2659C104.485 17.3168 104.625 17.3422 104.765 17.3422C104.904 17.3422 105.025 17.3168 105.127 17.2659C105.241 17.2151 105.374 17.1897 105.527 17.1897C105.679 17.1897 105.819 17.2596 105.946 17.3993C106.073 17.5391 106.137 17.7296 106.137 17.971C106.137 18.2759 105.972 18.5236 105.641 18.7142C105.311 18.9047 104.955 19 104.574 19C104.358 19 104.104 18.9809 103.812 18.9428C103.52 18.9047 103.234 18.8094 102.954 18.657C102.688 18.5046 102.465 18.2632 102.287 17.9329C102.11 17.5899 102.021 17.1135 102.021 16.5037V7.58567C102.021 7.30619 102.11 7.07752 102.287 6.89967C102.478 6.70911 102.707 6.61383 102.973 6.61383Z" fill="white"/>
<defs>
<clipPath id="clip0_750_1668">
<rect width="12.4609" height="12.4609" fill="white" transform="translate(4.8652 9.37305)"/>
</clipPath>
</defs>
</svg>
