<svg width="17" height="18" viewBox="0 0 17 18" fill="none" xmlns="http://www.w3.org/2000/svg">
<path d="M14.8434 3.21673C14.4768 2.79632 14.0417 2.46282 13.5627 2.23528C13.0837 2.00774 12.5704 1.89062 12.0519 1.89062C11.5335 1.89062 11.0201 2.00774 10.5411 2.23528C10.0621 2.46282 9.62698 2.79632 9.26046 3.21673L8.49981 4.08884L7.73916 3.21673C6.99882 2.36792 5.9947 1.89106 4.94771 1.89106C3.90071 1.89106 2.8966 2.36792 2.15626 3.21673C1.41592 4.06555 1 5.21678 1 6.41718C1 7.61758 1.41592 8.76882 2.15626 9.61763L2.91691 10.4897L8.49981 16.8906L14.0827 10.4897L14.8434 9.61763C15.21 9.19741 15.5009 8.69848 15.6994 8.14934C15.8979 7.60019 16 7.0116 16 6.41718C16 5.82276 15.8979 5.23417 15.6994 4.68503C15.5009 4.13588 15.21 3.63695 14.8434 3.21673Z" stroke="#FF816B" stroke-width="2" stroke-linecap="round" stroke-linejoin="round"/>
</svg>
