<svg width="20" height="20" viewBox="0 0 20 20" fill="none" xmlns="http://www.w3.org/2000/svg">
<path fill-rule="evenodd" clip-rule="evenodd" d="M6.26266 2.40479H13.4845C15.4741 2.40479 17.0878 4.01765 17.0878 6.00888V13.2307C17.0878 15.2203 15.4749 16.834 13.4837 16.834H6.26266C4.27223 16.834 2.65857 15.2211 2.65857 13.2299V6.00888C2.65857 4.01845 4.27143 2.40479 6.26266 2.40479V2.40479Z" stroke="#D1CFD4" stroke-width="1.20243" stroke-linecap="round" stroke-linejoin="round"/>
<path d="M13.8405 5.38124C13.6914 5.38204 13.5704 5.50309 13.5704 5.65219C13.5704 5.80129 13.6922 5.92233 13.8413 5.92233C13.9904 5.92233 14.1115 5.80129 14.1115 5.65219C14.1123 5.50228 13.9904 5.38124 13.8405 5.38124" stroke="#D1CFD4" stroke-width="1.20243" stroke-linecap="round" stroke-linejoin="round"/>
<path d="M11.9137 7.57864C13.0407 8.70563 13.0407 10.5328 11.9137 11.6598C10.7867 12.7868 8.95948 12.7868 7.83249 11.6598C6.7055 10.5328 6.7055 8.70563 7.83249 7.57864C8.95948 6.45165 10.7867 6.45165 11.9137 7.57864" stroke="#D1CFD4" stroke-width="1.20243" stroke-linecap="round" stroke-linejoin="round"/>
</svg>
