<svg width="20" height="20" viewBox="0 0 20 20" fill="none" xmlns="http://www.w3.org/2000/svg">
<path fill-rule="evenodd" clip-rule="evenodd" d="M14.5928 4.61877C13.2734 3.2985 11.5186 2.57063 9.64923 2.56982C5.79583 2.56982 2.66069 5.70336 2.65989 9.55515C2.65829 10.7808 2.97974 11.9857 3.59218 13.0478L2.60057 16.6679L6.30567 15.6964C7.33094 16.2543 8.47886 16.5469 9.64602 16.5469H9.64923C13.501 16.5469 16.6362 13.4126 16.6378 9.56077C16.6386 7.69459 15.9123 5.93984 14.5928 4.61877Z" stroke="#D1CFD4" stroke-width="1.20243" stroke-linecap="round" stroke-linejoin="round"/>
<path d="M10.4973 10.87L10.8228 10.5469C11.1218 10.2503 11.5948 10.2127 11.9395 10.4547C12.2729 10.6888 12.5743 10.8988 12.8549 11.0944C13.3006 11.4039 13.3543 12.0387 12.9703 12.4219L12.6826 12.7097" stroke="#D1CFD4" stroke-width="1.20243" stroke-linecap="round" stroke-linejoin="round"/>
<path d="M6.52917 6.55652L6.81696 6.26874C7.20013 5.88556 7.83502 5.93927 8.14444 6.38417C8.33924 6.66474 8.54926 6.96615 8.78414 7.29962C9.02623 7.64432 8.98935 8.11728 8.69195 8.41628L8.3689 8.74174" stroke="#D1CFD4" stroke-width="1.20243" stroke-linecap="round" stroke-linejoin="round"/>
<path d="M12.6826 12.7096C11.4954 13.8911 9.50016 12.8875 7.92497 11.3115" stroke="#D1CFD4" stroke-width="1.20243" stroke-linecap="round" stroke-linejoin="round"/>
<path d="M7.92644 11.3143C6.35125 9.73828 5.34762 7.74384 6.52921 6.55664" stroke="#D1CFD4" stroke-width="1.20243" stroke-linecap="round" stroke-linejoin="round"/>
<path d="M8.36884 8.7417C8.62455 9.14491 8.95242 9.54412 9.32277 9.91447L9.32437 9.91607C9.69472 10.2864 10.0939 10.6143 10.4971 10.87" stroke="#D1CFD4" stroke-width="1.20243" stroke-linecap="round" stroke-linejoin="round"/>
</svg>
