<svg width="24" height="24" viewBox="0 0 24 24" fill="none" xmlns="http://www.w3.org/2000/svg">
<path d="M4.99728 20.0034V8.54492" stroke="#FF816B" stroke-width="1.5" stroke-linecap="round" stroke-linejoin="round"/>
<path d="M19.0031 8.54492V20.0034" stroke="#FF816B" stroke-width="1.5" stroke-linecap="round" stroke-linejoin="round"/>
<path d="M2.99658 10.3235L10.671 3.50173C11.4291 2.82787 12.5715 2.82787 13.3296 3.50173L21.0041 10.3235" stroke="#FF816B" stroke-width="1.5" stroke-linecap="round" stroke-linejoin="round"/>
<path d="M3.49658 20.0034H20.5037" stroke="#FF816B" stroke-width="1.5" stroke-linecap="round" stroke-linejoin="round"/>
<path fill-rule="evenodd" clip-rule="evenodd" d="M11.9998 12.5002V12.5002C13.6573 12.5002 15.001 13.8439 15.001 15.5015V15.5015C15.001 15.7668 14.8956 16.0213 14.708 16.2089C14.5204 16.3965 14.2659 16.5019 14.0006 16.5019H9.99895C9.44644 16.5019 8.99854 16.054 8.99854 15.5015V15.5015C8.99854 13.8439 10.3422 12.5002 11.9998 12.5002V12.5002Z" stroke="#FF816B" stroke-width="1.5" stroke-linecap="round" stroke-linejoin="round"/>
<path d="M12.2503 9.49931C12.2501 9.63735 12.1381 9.74915 12.0001 9.74909C11.8621 9.74903 11.7502 9.63714 11.7501 9.49909C11.75 9.36105 11.8618 9.24906 11.9999 9.24888C12.0663 9.2488 12.1301 9.27515 12.1771 9.32213C12.224 9.36911 12.2504 9.43286 12.2503 9.4993" stroke="#FF816B" stroke-width="1.5" stroke-linecap="round" stroke-linejoin="round"/>
<path d="M15.2513 10.4998C15.2511 10.6378 15.1391 10.7496 15.0011 10.7496C14.863 10.7495 14.7511 10.6376 14.7511 10.4996C14.751 10.3615 14.8628 10.2495 15.0009 10.2494C15.0673 10.2493 15.131 10.2756 15.178 10.3226C15.225 10.3696 15.2514 10.4333 15.2513 10.4998" stroke="#FF816B" stroke-width="1.5" stroke-linecap="round" stroke-linejoin="round"/>
<path d="M9.24885 10.4998C9.24867 10.6378 9.13668 10.7496 8.99864 10.7496C8.86059 10.7495 8.7487 10.6376 8.74864 10.4996C8.74858 10.3615 8.86038 10.2495 8.99842 10.2494C9.06486 10.2493 9.12861 10.2756 9.17559 10.3226C9.22257 10.3696 9.24893 10.4333 9.24885 10.4998" stroke="#FF816B" stroke-width="1.5" stroke-linecap="round" stroke-linejoin="round"/>
</svg>
