<svg width="58" height="51" viewBox="0 0 58 51" fill="none" xmlns="http://www.w3.org/2000/svg">
<path d="M18.4581 0.0425576C21.8662 -0.43838 25.4764 3.21109 26.5162 8.2468C27.5559 13.2542 25.6786 17.7241 22.2705 18.2333C18.8914 18.7426 15.2523 15.0931 14.1836 10.0574C13.115 5.04997 15.0501 0.580077 18.4581 0.0425576ZM39.1086 0.0425576C42.5456 0.580077 44.4518 5.04997 43.4409 10.0574C42.3434 15.0931 38.7332 18.7426 35.3251 18.2333C31.8882 17.7241 30.0109 13.2542 31.0795 8.2468C32.1192 3.21109 35.7295 -0.43838 39.1086 0.0425576ZM3.00637 13.0562C6.2989 11.6699 10.7756 14.1878 13.115 18.5728C15.31 23.0427 14.5591 27.7389 11.2955 29.1252C8.03181 30.5114 3.58401 28.0218 1.30234 23.5802C-0.979318 19.1386 -0.170628 14.4141 3.00637 13.0562ZM54.9936 13.0562C58.1706 14.4141 58.9793 19.1386 56.6977 23.5802C54.416 28.0218 49.9682 30.5114 46.7046 29.1252C43.4409 27.7389 42.69 23.0427 44.885 18.5728C47.2244 14.1878 51.7011 11.6699 54.9936 13.0562Z" fill="#FF816B"/>
<g clip-path="url(#clip0_139_1999)">
<path fill-rule="evenodd" clip-rule="evenodd" d="M12.8365 38.0799C12.7605 41.7516 14.7139 45.439 17.8557 47.0409C19.5442 47.9037 21.4988 48.0881 23.3188 47.5563C24.9725 47.0943 26.6501 46.0873 28.2889 44.4682C29.8096 46.1987 31.4122 47.3189 33.0292 47.8985C34.8073 48.5572 36.77 48.5108 38.5151 47.769C41.7618 46.3923 43.97 42.8516 44.1527 39.1836L44.1533 39.1651C44.3419 33.8135 41.3264 28.9598 38.0708 25.5122C36.5932 23.9371 34.9417 22.5348 33.1479 21.3322C32.3807 20.8267 31.6542 20.4178 31.0072 20.1256C30.3899 19.8484 29.7403 19.6304 29.165 19.6101C28.5897 19.5898 27.9287 19.7616 27.2933 19.9947C26.6251 20.2383 25.8717 20.5949 25.0731 21.0453C23.1981 22.1192 21.4512 23.4025 19.8657 24.8705C16.3755 28.0805 13.0258 32.7098 12.8372 38.059L12.8365 38.0799Z" fill="#FF816B"/>
</g>
<defs>
<clipPath id="clip0_139_1999">
<rect width="32.4962" height="32.4962" fill="white" transform="translate(12.6875 18.1894)"/>
</clipPath>
</defs>
</svg>
