<svg width="18" height="18" viewBox="0 0 18 18" fill="none" xmlns="http://www.w3.org/2000/svg">
<path d="M15.5557 8.24998C15.6804 7.79293 15.7457 7.32173 15.75 6.84799C15.7682 5.82248 15.3691 4.83357 14.6441 4.10803C13.9191 3.38249 12.9305 2.98257 11.905 2.99998C10.7577 2.96977 9.66994 3.5095 9.00003 4.44134C8.33012 3.5095 7.24232 2.96977 6.09506 2.99998C5.06954 2.98257 4.08094 3.38249 3.35596 4.10803C2.63098 4.83357 2.23183 5.82248 2.25003 6.84799C2.33185 8.53657 3.00511 10.1425 4.1519 11.3847C5.06786 12.4485 6.16079 13.3461 7.38243 14.0378C7.65356 14.1906 7.94598 14.3021 8.25003 14.3685" stroke="#2E1559" stroke-width="1.12453" stroke-linecap="round" stroke-linejoin="round"/>
<path fill-rule="evenodd" clip-rule="evenodd" d="M13.3123 12.75V12.75C14.5549 12.75 15.5623 13.7574 15.5623 15V15C15.5623 15.4142 15.2265 15.75 14.8123 15.75H11.8123C11.398 15.75 11.0623 15.4142 11.0623 15V15C11.0623 13.7574 12.0696 12.75 13.3123 12.75Z" stroke="#2E1559" stroke-width="1.12453" stroke-linecap="round" stroke-linejoin="round"/>
<path d="M13.5 10.5002C13.4999 10.6037 13.4159 10.6875 13.3124 10.6875C13.2089 10.6875 13.125 10.6036 13.125 10.5001C13.125 10.3966 13.2088 10.3126 13.3123 10.3125C13.3621 10.3124 13.4099 10.3322 13.4451 10.3674C13.4803 10.4026 13.5001 10.4504 13.5 10.5002" stroke="#2E1559" stroke-width="1.12453" stroke-linecap="round" stroke-linejoin="round"/>
<path d="M15.75 11.2502C15.7499 11.3537 15.6659 11.4375 15.5624 11.4375C15.4589 11.4375 15.375 11.3536 15.375 11.2501C15.375 11.1466 15.4588 11.0626 15.5623 11.0625C15.6121 11.0624 15.6599 11.0822 15.6951 11.1174C15.7303 11.1526 15.7501 11.2004 15.75 11.2502" stroke="#2E1559" stroke-width="1.12453" stroke-linecap="round" stroke-linejoin="round"/>
<path d="M11.25 11.2502C11.2499 11.3537 11.1659 11.4375 11.0625 11.4375C10.959 11.4375 10.8751 11.3536 10.875 11.2501C10.875 11.1466 10.9588 11.0626 11.0623 11.0625C11.1121 11.0624 11.1599 11.0822 11.1951 11.1174C11.2303 11.1526 11.2501 11.2004 11.25 11.2502" stroke="#2E1559" stroke-width="1.12453" stroke-linecap="round" stroke-linejoin="round"/>
</svg>
