<svg width="24" height="24" viewBox="0 0 24 24" fill="none" xmlns="http://www.w3.org/2000/svg">
<path d="M21.009 11.0046V9.8328C21.009 9.28028 20.5611 8.83238 20.0085 8.83238H15.1778V4.00164C15.1778 3.44912 14.7299 3.00122 14.1774 3.00122H9.83304C9.28053 3.00122 8.83262 3.44912 8.83262 4.00164V8.83238H4.00188C3.44937 8.83238 3.00146 9.28028 3.00146 9.8328V14.1771C3.00146 14.7297 3.44937 15.1776 4.00188 15.1776H8.83262V20.0083C8.83262 20.5608 9.28053 21.0087 9.83304 21.0087H12.0052" stroke="#FF816B" stroke-width="1.5" stroke-linecap="round" stroke-linejoin="round"/>
<path fill-rule="evenodd" clip-rule="evenodd" d="M18.0071 17.0071V17.0071C19.6647 17.0071 21.0084 18.3508 21.0084 20.0083V20.0083C21.0084 20.5608 20.5605 21.0087 20.0079 21.0087H16.0063C15.4538 21.0087 15.0059 20.5608 15.0059 20.0083V20.0083C15.0059 18.3508 16.3496 17.0071 18.0071 17.0071Z" stroke="#FF816B" stroke-width="1.5" stroke-linecap="round" stroke-linejoin="round"/>
<path d="M18.2576 14.0061C18.2575 14.1442 18.1455 14.256 18.0074 14.2559C17.8694 14.2559 17.7575 14.144 17.7574 14.0059C17.7574 13.8679 17.8692 13.7559 18.0072 13.7557C18.0737 13.7556 18.1374 13.782 18.1844 13.829C18.2314 13.8759 18.2577 13.9397 18.2576 14.0061" stroke="#FF816B" stroke-width="1.5" stroke-linecap="round" stroke-linejoin="round"/>
<path d="M21.2586 15.0066C21.2584 15.1447 21.1465 15.2565 21.0084 15.2564C20.8704 15.2564 20.7585 15.1445 20.7584 15.0064C20.7583 14.8684 20.8701 14.7564 21.0082 14.7562C21.0746 14.7561 21.1384 14.7825 21.1854 14.8295C21.2323 14.8764 21.2587 14.9402 21.2586 15.0066" stroke="#FF816B" stroke-width="1.5" stroke-linecap="round" stroke-linejoin="round"/>
<path d="M15.2562 15.0066C15.256 15.1447 15.144 15.2565 15.006 15.2564C14.8679 15.2564 14.756 15.1445 14.756 15.0064C14.7559 14.8684 14.8677 14.7564 15.0057 14.7562C15.0722 14.7561 15.1359 14.7825 15.1829 14.8295C15.2299 14.8764 15.2563 14.9402 15.2562 15.0066" stroke="#FF816B" stroke-width="1.5" stroke-linecap="round" stroke-linejoin="round"/>
</svg>
