<svg width="24" height="24" viewBox="0 0 24 24" fill="none" xmlns="http://www.w3.org/2000/svg">
<path d="M20.7447 10.9996C20.911 10.39 20.9981 9.76145 21.0039 9.12954C21.0282 7.76163 20.4958 6.44253 19.5287 5.47474C18.5617 4.50695 17.243 3.9735 15.8751 3.99672C14.3447 3.95642 12.8937 4.67637 12.0002 5.91933C11.1066 4.67637 9.65556 3.95642 8.12525 3.99672C6.75731 3.9735 5.43863 4.50695 4.47159 5.47474C3.50455 6.44253 2.97212 7.76163 2.9964 9.12954C3.10554 11.3819 4.0036 13.5241 5.53329 15.181C6.75507 16.6001 8.21291 17.7973 9.84245 18.72C10.2041 18.9238 10.5942 19.0724 10.9997 19.161" stroke="#FF816B" stroke-width="1.5" stroke-linecap="round" stroke-linejoin="round"/>
<path fill-rule="evenodd" clip-rule="evenodd" d="M17.7522 17.0022V17.0022C19.4098 17.0022 20.7535 18.3459 20.7535 20.0034V20.0034C20.7535 20.556 20.3056 21.0039 19.7531 21.0039H15.7514C15.1989 21.0039 14.751 20.556 14.751 20.0034V20.0034C14.751 18.3459 16.0947 17.0022 17.7522 17.0022Z" stroke="#FF816B" stroke-width="1.5" stroke-linecap="round" stroke-linejoin="round"/>
<path d="M18.0028 14.0013C18.0026 14.1393 17.8906 14.2511 17.7525 14.251C17.6145 14.251 17.5026 14.1391 17.5025 14.0011C17.5025 13.863 17.6143 13.751 17.7523 13.7508C17.8188 13.7508 17.8825 13.7771 17.9295 13.8241C17.9765 13.8711 18.0028 13.9348 18.0028 14.0013" stroke="#FF816B" stroke-width="1.5" stroke-linecap="round" stroke-linejoin="round"/>
<path d="M21.0037 15.0017C21.0036 15.1398 20.8916 15.2516 20.7535 15.2515C20.6155 15.2515 20.5036 15.1396 20.5035 15.0015C20.5035 14.8635 20.6153 14.7515 20.7533 14.7513C20.8197 14.7512 20.8835 14.7776 20.9305 14.8246C20.9775 14.8716 21.0038 14.9353 21.0037 15.0017" stroke="#FF816B" stroke-width="1.5" stroke-linecap="round" stroke-linejoin="round"/>
<path d="M15.0013 15.0017C15.0011 15.1398 14.8891 15.2516 14.7511 15.2515C14.613 15.2515 14.5011 15.1396 14.5011 15.0015C14.501 14.8635 14.6128 14.7515 14.7509 14.7513C14.8173 14.7512 14.881 14.7776 14.928 14.8246C14.975 14.8716 15.0014 14.9353 15.0013 15.0017" stroke="#FF816B" stroke-width="1.5" stroke-linecap="round" stroke-linejoin="round"/>
</svg>
