<svg width="19" height="20" viewBox="0 0 19 20" fill="none" xmlns="http://www.w3.org/2000/svg">
<path fill-rule="evenodd" clip-rule="evenodd" d="M9.49998 9.00464V9.00464C10.8122 9.00464 11.876 10.0684 11.876 11.3806V11.3806C11.876 11.818 11.5214 12.1726 11.084 12.1726H7.91599C7.47858 12.1726 7.12399 11.818 7.12399 11.3806V11.3806C7.12399 10.0684 8.18776 9.00464 9.49998 9.00464V9.00464Z" stroke="#756F82" stroke-width="1.5" stroke-linecap="round" stroke-linejoin="round"/>
<path fill-rule="evenodd" clip-rule="evenodd" d="M9.49998 9.00464V9.00464C10.8122 9.00464 11.876 10.0684 11.876 11.3806V11.3806C11.876 11.818 11.5214 12.1726 11.084 12.1726H7.91599C7.47858 12.1726 7.12399 11.818 7.12399 11.3806V11.3806C7.12399 10.0684 8.18776 9.00464 9.49998 9.00464V9.00464Z" stroke="black" stroke-opacity="0.2" stroke-width="1.5" stroke-linecap="round" stroke-linejoin="round"/>
<path fill-rule="evenodd" clip-rule="evenodd" d="M13.8512 5.06525V5.06525C16.2542 7.46843 16.2542 11.3645 13.8512 13.7677V13.7677L10.5248 17.0941C9.95857 17.6602 9.04065 17.6602 8.47437 17.0941L5.14799 13.7677C3.99364 12.6139 3.34509 11.0486 3.34509 9.41648C3.34509 7.78434 3.99364 6.2191 5.14799 5.06525V5.06525C6.30186 3.91066 7.86728 3.26196 9.49961 3.26196C11.1319 3.26196 12.6974 3.91066 13.8512 5.06525Z" stroke="#756F82" stroke-width="1.5" stroke-linecap="round" stroke-linejoin="round"/>
<path fill-rule="evenodd" clip-rule="evenodd" d="M13.8512 5.06525V5.06525C16.2542 7.46843 16.2542 11.3645 13.8512 13.7677V13.7677L10.5248 17.0941C9.95857 17.6602 9.04065 17.6602 8.47437 17.0941L5.14799 13.7677C3.99364 12.6139 3.34509 11.0486 3.34509 9.41648C3.34509 7.78434 3.99364 6.2191 5.14799 5.06525V5.06525C6.30186 3.91066 7.86728 3.26196 9.49961 3.26196C11.1319 3.26196 12.6974 3.91066 13.8512 5.06525Z" stroke="black" stroke-opacity="0.2" stroke-width="1.5" stroke-linecap="round" stroke-linejoin="round"/>
<path d="M7.124 7.22266C7.01475 7.2231 6.9265 7.31194 6.92679 7.42119C6.92708 7.53043 7.0158 7.6188 7.12505 7.61866C7.2343 7.61851 7.32279 7.52991 7.32279 7.42066C7.323 7.36795 7.3021 7.31734 7.26475 7.28014C7.2274 7.24294 7.17671 7.22224 7.124 7.22266" stroke="#756F82" stroke-width="1.5" stroke-linecap="round" stroke-linejoin="round"/>
<path d="M7.124 7.22266C7.01475 7.2231 6.9265 7.31194 6.92679 7.42119C6.92708 7.53043 7.0158 7.6188 7.12505 7.61866C7.2343 7.61851 7.32279 7.52991 7.32279 7.42066C7.323 7.36795 7.3021 7.31734 7.26475 7.28014C7.2274 7.24294 7.17671 7.22224 7.124 7.22266" stroke="black" stroke-opacity="0.2" stroke-width="1.5" stroke-linecap="round" stroke-linejoin="round"/>
<path d="M11.876 7.22266C11.7667 7.2231 11.6785 7.31194 11.6788 7.42119C11.6791 7.53043 11.7678 7.6188 11.877 7.61866C11.9863 7.61851 12.0748 7.52991 12.0748 7.42066C12.075 7.36795 12.0541 7.31734 12.0167 7.28014C11.9794 7.24294 11.9287 7.22224 11.876 7.22266" stroke="#756F82" stroke-width="1.5" stroke-linecap="round" stroke-linejoin="round"/>
<path d="M11.876 7.22266C11.7667 7.2231 11.6785 7.31194 11.6788 7.42119C11.6791 7.53043 11.7678 7.6188 11.877 7.61866C11.9863 7.61851 12.0748 7.52991 12.0748 7.42066C12.075 7.36795 12.0541 7.31734 12.0167 7.28014C11.9794 7.24294 11.9287 7.22224 11.876 7.22266" stroke="black" stroke-opacity="0.2" stroke-width="1.5" stroke-linecap="round" stroke-linejoin="round"/>
<path d="M9.5 6.43067C9.39076 6.43111 9.30251 6.51995 9.3028 6.62919C9.30309 6.73844 9.39181 6.82681 9.50106 6.82667C9.61031 6.82652 9.69879 6.73792 9.69879 6.62866C9.69901 6.57595 9.67811 6.52535 9.64076 6.48815C9.60341 6.45094 9.55272 6.43025 9.5 6.43067" stroke="#756F82" stroke-width="1.5" stroke-linecap="round" stroke-linejoin="round"/>
<path d="M9.5 6.43067C9.39076 6.43111 9.30251 6.51995 9.3028 6.62919C9.30309 6.73844 9.39181 6.82681 9.50106 6.82667C9.61031 6.82652 9.69879 6.73792 9.69879 6.62866C9.69901 6.57595 9.67811 6.52535 9.64076 6.48815C9.60341 6.45094 9.55272 6.43025 9.5 6.43067" stroke="black" stroke-opacity="0.2" stroke-width="1.5" stroke-linecap="round" stroke-linejoin="round"/>
</svg>
