<svg width="20" height="20" viewBox="0 0 20 20" fill="none" xmlns="http://www.w3.org/2000/svg">
<path fill-rule="evenodd" clip-rule="evenodd" d="M17.8088 5.10869C17.6252 4.30386 17.0817 3.66898 16.3907 3.45094C15.141 3.06055 10.1268 3.06055 10.1268 3.06055C10.1268 3.06055 5.1151 3.06055 3.86297 3.45094C3.17438 3.66577 2.63088 4.30066 2.4449 5.10869C2.11063 6.56924 2.11063 9.61941 2.11063 9.61941C2.11063 9.61941 2.11063 12.6696 2.4449 14.1301C2.62847 14.935 3.17197 15.5699 3.86297 15.7879C5.1151 16.1783 10.1268 16.1783 10.1268 16.1783C10.1268 16.1783 15.141 16.1783 16.3907 15.7879C17.0793 15.5731 17.6228 14.9382 17.8088 14.1301C18.1431 12.6696 18.1431 9.61941 18.1431 9.61941C18.1431 9.61941 18.1431 6.56924 17.8088 5.10869Z" stroke="#D1CFD4" stroke-width="1.20243" stroke-linecap="round" stroke-linejoin="round"/>
<path fill-rule="evenodd" clip-rule="evenodd" d="M8.52539 12.0241L12.6906 9.61922L8.52539 7.21436V12.0241Z" stroke="#D1CFD4" stroke-width="1.20243" stroke-linecap="round" stroke-linejoin="round"/>
</svg>
