<svg width="20" height="21" viewBox="0 0 20 21" fill="none" xmlns="http://www.w3.org/2000/svg">
<path d="M13.3333 12.0574V12.474M9.37497 13.9324H10.625L9.99997 14.5574L9.37497 13.9324Z" stroke="#756F82" stroke-width="1.5" stroke-linecap="round" stroke-linejoin="round"/>
<path d="M13.3333 12.0574V12.474M9.37497 13.9324H10.625L9.99997 14.5574L9.37497 13.9324Z" stroke="black" stroke-opacity="0.2" stroke-width="1.5" stroke-linecap="round" stroke-linejoin="round"/>
<path d="M3.68331 9.76318C3.45052 10.6639 3.33291 11.5904 3.33331 12.5207C3.33331 15.9974 6.31831 17.8907 9.99998 17.8907C13.6816 17.8907 16.6666 15.9974 16.6666 12.5207C16.6625 11.5866 16.5241 10.6579 16.2558 9.76318M6.66665 12.0574V12.474" stroke="#756F82" stroke-width="1.5" stroke-linecap="round" stroke-linejoin="round"/>
<path d="M3.68331 9.76318C3.45052 10.6639 3.33291 11.5904 3.33331 12.5207C3.33331 15.9974 6.31831 17.8907 9.99998 17.8907C13.6816 17.8907 16.6666 15.9974 16.6666 12.5207C16.6625 11.5866 16.5241 10.6579 16.2558 9.76318M6.66665 12.0574V12.474" stroke="black" stroke-opacity="0.2" stroke-width="1.5" stroke-linecap="round" stroke-linejoin="round"/>
<path d="M7.08332 7.47401C6.76332 8.34901 6.18082 9.16401 5.12998 9.55735C3.52082 10.159 2.14998 9.30985 2.08332 8.72401C1.98915 7.89568 3.06415 3.28235 5.41665 2.89068C7.01915 2.62318 8.45915 3.59485 8.45915 4.75318C9.51316 4.48561 10.6187 4.49768 11.6667 4.78818C11.6667 3.62985 13.2033 2.62318 14.8058 2.89068C17.1583 3.28235 18.2333 7.89568 18.1392 8.72401C18.0725 9.30985 16.7017 10.159 15.0925 9.55735C14.0417 9.16401 13.5467 8.34901 13.2267 7.47401" stroke="#756F82" stroke-width="1.5" stroke-linecap="round" stroke-linejoin="round"/>
<path d="M7.08332 7.47401C6.76332 8.34901 6.18082 9.16401 5.12998 9.55735C3.52082 10.159 2.14998 9.30985 2.08332 8.72401C1.98915 7.89568 3.06415 3.28235 5.41665 2.89068C7.01915 2.62318 8.45915 3.59485 8.45915 4.75318C9.51316 4.48561 10.6187 4.49768 11.6667 4.78818C11.6667 3.62985 13.2033 2.62318 14.8058 2.89068C17.1583 3.28235 18.2333 7.89568 18.1392 8.72401C18.0725 9.30985 16.7017 10.159 15.0925 9.55735C14.0417 9.16401 13.5467 8.34901 13.2267 7.47401" stroke="black" stroke-opacity="0.2" stroke-width="1.5" stroke-linecap="round" stroke-linejoin="round"/>
</svg>
