<svg width="18" height="15" viewBox="0 0 18 15" fill="none" xmlns="http://www.w3.org/2000/svg">
<path fill-rule="evenodd" clip-rule="evenodd" d="M9.01674 9.83824C8.77341 9.83824 8.52507 9.87574 8.31507 9.95741C8.19014 10.004 8.07488 10.0732 7.97507 10.1616C7.89573 10.2325 7.83202 10.3191 7.78797 10.4159C7.74393 10.5127 7.72052 10.6177 7.71924 10.7241C7.71924 10.9949 7.86341 11.1841 7.97507 11.2857C8.08591 11.3882 8.21257 11.4507 8.31507 11.4907C8.52591 11.5724 8.77341 11.6091 9.01674 11.6091C9.25841 11.6091 9.50674 11.5724 9.71674 11.4907C9.8209 11.4507 9.94674 11.3882 10.0584 11.2857C10.1375 11.2149 10.201 11.1284 10.2449 11.0317C10.2888 10.935 10.3121 10.8302 10.3134 10.7241C10.3121 10.6177 10.2887 10.5127 10.2447 10.4159C10.2006 10.3191 10.1369 10.2325 10.0576 10.1616C9.95777 10.0732 9.8425 10.004 9.71757 9.95741C9.49295 9.87615 9.25559 9.83579 9.01674 9.83824Z" fill="#756F82"/>
<path fill-rule="evenodd" clip-rule="evenodd" d="M9.01674 9.83824C8.77341 9.83824 8.52507 9.87574 8.31507 9.95741C8.19014 10.004 8.07488 10.0732 7.97507 10.1616C7.89573 10.2325 7.83202 10.3191 7.78797 10.4159C7.74393 10.5127 7.72052 10.6177 7.71924 10.7241C7.71924 10.9949 7.86341 11.1841 7.97507 11.2857C8.08591 11.3882 8.21257 11.4507 8.31507 11.4907C8.52591 11.5724 8.77341 11.6091 9.01674 11.6091C9.25841 11.6091 9.50674 11.5724 9.71674 11.4907C9.8209 11.4507 9.94674 11.3882 10.0584 11.2857C10.1375 11.2149 10.201 11.1284 10.2449 11.0317C10.2888 10.935 10.3121 10.8302 10.3134 10.7241C10.3121 10.6177 10.2887 10.5127 10.2447 10.4159C10.2006 10.3191 10.1369 10.2325 10.0576 10.1616C9.95777 10.0732 9.8425 10.004 9.71757 9.95741C9.49295 9.87615 9.25559 9.83579 9.01674 9.83824Z" fill="black" fill-opacity="0.2"/>
<path d="M10.6975 7.92905C10.8342 7.70738 11.1059 7.44238 11.5142 7.44238C11.9209 7.44238 12.1925 7.70738 12.33 7.92905C12.4734 8.16072 12.5417 8.44155 12.5417 8.71905C12.5417 8.99655 12.4734 9.27738 12.33 9.50822C12.1925 9.72988 11.9217 9.99488 11.5134 9.99488C11.1059 9.99488 10.8342 9.72988 10.6967 9.50822C10.5545 9.26981 10.4812 8.99662 10.485 8.71905C10.485 8.44155 10.5534 8.16072 10.6975 7.92905ZM6.51335 7.44322C6.10668 7.44322 5.83502 7.70738 5.69668 7.92905C5.55431 8.16769 5.48103 8.44119 5.48502 8.71905C5.48502 8.99572 5.55335 9.27738 5.69752 9.50822C5.83502 9.72988 6.10585 9.99488 6.51418 9.99488C6.92085 9.99488 7.19252 9.72988 7.33085 9.50822C7.47335 9.27655 7.54168 8.99572 7.54168 8.71905C7.54168 8.44155 7.47335 8.16072 7.33002 7.92905C7.19252 7.70738 6.92168 7.44322 6.51335 7.44322Z" fill="#756F82"/>
<path d="M10.6975 7.92905C10.8342 7.70738 11.1059 7.44238 11.5142 7.44238C11.9209 7.44238 12.1925 7.70738 12.33 7.92905C12.4734 8.16072 12.5417 8.44155 12.5417 8.71905C12.5417 8.99655 12.4734 9.27738 12.33 9.50822C12.1925 9.72988 11.9217 9.99488 11.5134 9.99488C11.1059 9.99488 10.8342 9.72988 10.6967 9.50822C10.5545 9.26981 10.4812 8.99662 10.485 8.71905C10.485 8.44155 10.5534 8.16072 10.6975 7.92905ZM6.51335 7.44322C6.10668 7.44322 5.83502 7.70738 5.69668 7.92905C5.55431 8.16769 5.48103 8.44119 5.48502 8.71905C5.48502 8.99572 5.55335 9.27738 5.69752 9.50822C5.83502 9.72988 6.10585 9.99488 6.51418 9.99488C6.92085 9.99488 7.19252 9.72988 7.33085 9.50822C7.47335 9.27655 7.54168 8.99572 7.54168 8.71905C7.54168 8.44155 7.47335 8.16072 7.33002 7.92905C7.19252 7.70738 6.92168 7.44322 6.51335 7.44322Z" fill="black" fill-opacity="0.2"/>
<path fill-rule="evenodd" clip-rule="evenodd" d="M4.07902 0.932373C3.56735 0.932373 2.97902 1.08154 2.50735 1.48737C2.01818 1.90821 1.72485 2.54737 1.72485 3.37987V4.94487C1.72568 5.18987 1.76735 5.68071 1.90735 6.08987C1.95318 6.22404 2.02568 6.40154 2.14818 6.56237C1.92974 7.00749 1.7942 7.48868 1.74818 7.98237C1.70568 8.37154 1.70485 8.78071 1.71152 9.15821C1.16152 9.34987 0.590684 9.58654 0.328184 9.75654C0.193467 9.84836 0.0999595 9.98918 0.0676075 10.149C0.0352555 10.3088 0.0666201 10.4749 0.155011 10.6119C0.243402 10.7488 0.381822 10.8459 0.540743 10.8822C0.699665 10.9186 0.866509 10.8914 1.00568 10.8065C1.10235 10.744 1.38902 10.6124 1.76568 10.469C1.82318 10.8682 1.93902 11.2315 2.10152 11.5624C1.95684 11.6528 1.81349 11.7453 1.67152 11.8399C1.60257 11.8844 1.54308 11.9421 1.49643 12.0096C1.44977 12.0772 1.41688 12.1532 1.39963 12.2335C1.38237 12.3137 1.38109 12.3966 1.39585 12.4773C1.41062 12.5581 1.44114 12.6351 1.48568 12.704C1.53022 12.773 1.58791 12.8325 1.65544 12.8791C1.72297 12.9258 1.79903 12.9587 1.87928 12.9759C1.95952 12.9932 2.04238 12.9945 2.12312 12.9797C2.20386 12.9649 2.28091 12.9344 2.34985 12.8899L2.45902 12.8182C2.56818 12.7474 2.69402 12.6649 2.83068 12.5815C3.32235 13.0832 3.93235 13.4707 4.56568 13.7624C6.04985 14.4457 7.80735 14.6824 8.99985 14.6824C10.1923 14.6824 11.9499 14.4449 13.434 13.7624C14.0673 13.4707 14.6782 13.0832 15.169 12.5815C15.3057 12.6649 15.4315 12.7474 15.5407 12.8182L15.6498 12.8899C15.7891 12.9798 15.9584 13.0108 16.1204 12.9759C16.2825 12.9411 16.4241 12.8433 16.514 12.704C16.604 12.5648 16.6349 12.3955 16.6001 12.2335C16.5652 12.0714 16.4674 11.9298 16.3282 11.8399L16.234 11.7782C16.1424 11.7182 16.0282 11.6432 15.8982 11.5624C16.0607 11.2324 16.1773 10.8682 16.2348 10.469C16.6115 10.6124 16.8974 10.744 16.9949 10.8065C17.134 10.8914 17.3009 10.9186 17.4598 10.8822C17.6187 10.8459 17.7571 10.7488 17.8455 10.6119C17.9339 10.4749 17.9653 10.3088 17.9329 10.149C17.9006 9.98918 17.8071 9.84836 17.6723 9.75654C17.4099 9.58654 16.839 9.34987 16.2882 9.15821C16.3012 8.7656 16.2889 8.37257 16.2515 7.98154C16.2054 7.48813 16.0699 7.00724 15.8515 6.56237C15.974 6.40154 16.0465 6.22404 16.0932 6.08987C16.209 5.71905 16.2702 5.33334 16.2749 4.94487V3.38071C16.2749 2.54737 15.9815 1.90904 15.4924 1.48737C15.0215 1.08154 14.4324 0.932373 13.9207 0.932373C13.5807 0.932373 13.229 1.06321 12.9448 1.19071C12.6381 1.33517 12.3384 1.49396 12.0465 1.66654L11.869 1.76904L11.8673 1.76987C11.6473 1.89737 11.4523 2.01154 11.2782 2.10071C11.1704 2.15571 11.0854 2.1946 11.0232 2.21737L10.9715 2.23404C10.7908 2.23132 10.6104 2.21685 10.4315 2.19071L10.2965 2.17404C9.86627 2.12264 9.43313 2.09926 8.99985 2.10404C8.35652 2.10404 7.99152 2.13821 7.70318 2.17404L7.56818 2.19071C7.38931 2.21685 7.20893 2.23132 7.02818 2.23404L6.97652 2.21737C6.8894 2.18329 6.80427 2.14434 6.72152 2.10071C6.52253 1.99513 6.32608 1.88482 6.13235 1.76987L5.95318 1.66654C5.66161 1.49426 5.36211 1.33576 5.05568 1.19154C4.77152 1.06321 4.41902 0.932373 4.07902 0.932373ZM4.13485 12.069C4.41318 12.279 4.73402 12.464 5.08818 12.6274C6.36318 13.214 7.93152 13.4324 8.99985 13.4324C10.0682 13.4324 11.6357 13.214 12.9115 12.6274C13.2657 12.464 13.5865 12.279 13.8649 12.069C13.7105 12.0423 13.5718 11.9586 13.4763 11.8345C13.3807 11.7104 13.3352 11.5549 13.3489 11.3988C13.3625 11.2428 13.4342 11.0976 13.5498 10.9919C13.6655 10.8862 13.8165 10.8278 13.9732 10.8282C14.2457 10.8282 14.5249 10.8965 14.7832 10.9907C14.9187 10.7048 14.9988 10.3957 15.019 10.0799C14.853 10.0341 14.6826 10.0056 14.5107 9.99487C14.3449 9.99487 14.186 9.92902 14.0687 9.81181C13.9515 9.6946 13.8857 9.53563 13.8857 9.36987C13.8857 9.20411 13.9515 9.04514 14.0687 8.92793C14.186 8.81072 14.3449 8.74487 14.5107 8.74487C14.6732 8.74487 14.8565 8.76987 15.0415 8.80487C15.0415 8.57487 15.034 8.34904 15.009 8.11737C14.9507 7.57987 14.7982 7.10237 14.439 6.67821C14.2942 6.50953 14.13 6.35849 13.9499 6.22821C13.8161 6.13008 13.7269 5.98285 13.7017 5.81891C13.6766 5.65497 13.7176 5.48775 13.8157 5.35404C13.9138 5.22033 14.061 5.13107 14.225 5.10591C14.3889 5.08075 14.5561 5.12174 14.6898 5.21987C14.7899 5.29321 14.8837 5.36821 14.9715 5.44487C15.0082 5.25487 15.0248 5.05571 15.0248 4.94154V3.38071C15.0248 2.85904 14.8532 2.58654 14.6765 2.43487C14.4832 2.26821 14.2082 2.18237 13.9207 2.18237C13.8624 2.18237 13.7157 2.21487 13.459 2.33071C13.2199 2.43904 12.9523 2.58737 12.6698 2.74987L12.509 2.84321C12.2857 2.97237 12.0548 3.10654 11.8507 3.21154C11.7215 3.27821 11.5873 3.34154 11.4582 3.38987C11.3106 3.4489 11.1537 3.48107 10.9949 3.48487C10.7485 3.48441 10.5026 3.46575 10.259 3.42904L10.1448 3.41487C9.76503 3.36833 9.38246 3.348 8.99985 3.35404C8.40985 3.35404 8.09568 3.38487 7.85568 3.41487L7.74068 3.42904C7.53235 3.45654 7.31485 3.48404 7.00485 3.48404C6.82735 3.48404 6.66152 3.43404 6.54235 3.38987C6.40752 3.33899 6.27614 3.27942 6.14902 3.21154C5.94485 3.10654 5.71402 2.97237 5.49068 2.84321L5.32985 2.74987C5.04735 2.58737 4.77985 2.43821 4.54068 2.33071C4.28402 2.21404 4.13735 2.18237 4.07902 2.18237C3.79235 2.18237 3.51652 2.26821 3.32318 2.43487C3.14652 2.58654 2.97485 2.85987 2.97485 3.38071V4.94071C2.97485 5.05487 2.99152 5.25404 3.02818 5.44404C3.11707 5.36737 3.21096 5.29237 3.30985 5.21904C3.37606 5.17045 3.45119 5.13538 3.53095 5.11582C3.61071 5.09627 3.69355 5.09262 3.77472 5.10508C3.85589 5.11754 3.93382 5.14586 4.00405 5.18843C4.07427 5.23101 4.13543 5.287 4.18402 5.35321C4.23261 5.41941 4.26768 5.49454 4.28723 5.57431C4.30679 5.65407 4.31044 5.7369 4.29798 5.81808C4.28552 5.89925 4.2572 5.97718 4.21462 6.0474C4.17205 6.11763 4.11606 6.17878 4.04985 6.22737C3.85096 6.3746 3.68791 6.5246 3.56068 6.67737C3.20235 7.10237 3.04902 7.57904 2.99068 8.11654C2.96568 8.34821 2.95735 8.57487 2.95735 8.80404C3.14318 8.76821 3.32652 8.74404 3.48902 8.74404C3.65478 8.74404 3.81375 8.80989 3.93096 8.9271C4.04817 9.04431 4.11402 9.20328 4.11402 9.36904C4.11402 9.5348 4.04817 9.69377 3.93096 9.81098C3.81375 9.92819 3.65478 9.99404 3.48902 9.99404C3.40068 9.99404 3.22902 10.019 2.98068 10.079C3.00318 10.4107 3.08485 10.7132 3.21652 10.9899C3.47519 10.8896 3.74919 10.8346 4.02652 10.8274C4.18316 10.8269 4.33425 10.8854 4.44987 10.991C4.5655 11.0967 4.63722 11.242 4.65084 11.398C4.66447 11.5541 4.619 11.7095 4.52344 11.8337C4.42788 11.9578 4.2892 12.0423 4.13485 12.069Z" fill="#756F82"/>
<path fill-rule="evenodd" clip-rule="evenodd" d="M4.07902 0.932373C3.56735 0.932373 2.97902 1.08154 2.50735 1.48737C2.01818 1.90821 1.72485 2.54737 1.72485 3.37987V4.94487C1.72568 5.18987 1.76735 5.68071 1.90735 6.08987C1.95318 6.22404 2.02568 6.40154 2.14818 6.56237C1.92974 7.00749 1.7942 7.48868 1.74818 7.98237C1.70568 8.37154 1.70485 8.78071 1.71152 9.15821C1.16152 9.34987 0.590684 9.58654 0.328184 9.75654C0.193467 9.84836 0.0999595 9.98918 0.0676075 10.149C0.0352555 10.3088 0.0666201 10.4749 0.155011 10.6119C0.243402 10.7488 0.381822 10.8459 0.540743 10.8822C0.699665 10.9186 0.866509 10.8914 1.00568 10.8065C1.10235 10.744 1.38902 10.6124 1.76568 10.469C1.82318 10.8682 1.93902 11.2315 2.10152 11.5624C1.95684 11.6528 1.81349 11.7453 1.67152 11.8399C1.60257 11.8844 1.54308 11.9421 1.49643 12.0096C1.44977 12.0772 1.41688 12.1532 1.39963 12.2335C1.38237 12.3137 1.38109 12.3966 1.39585 12.4773C1.41062 12.5581 1.44114 12.6351 1.48568 12.704C1.53022 12.773 1.58791 12.8325 1.65544 12.8791C1.72297 12.9258 1.79903 12.9587 1.87928 12.9759C1.95952 12.9932 2.04238 12.9945 2.12312 12.9797C2.20386 12.9649 2.28091 12.9344 2.34985 12.8899L2.45902 12.8182C2.56818 12.7474 2.69402 12.6649 2.83068 12.5815C3.32235 13.0832 3.93235 13.4707 4.56568 13.7624C6.04985 14.4457 7.80735 14.6824 8.99985 14.6824C10.1923 14.6824 11.9499 14.4449 13.434 13.7624C14.0673 13.4707 14.6782 13.0832 15.169 12.5815C15.3057 12.6649 15.4315 12.7474 15.5407 12.8182L15.6498 12.8899C15.7891 12.9798 15.9584 13.0108 16.1204 12.9759C16.2825 12.9411 16.4241 12.8433 16.514 12.704C16.604 12.5648 16.6349 12.3955 16.6001 12.2335C16.5652 12.0714 16.4674 11.9298 16.3282 11.8399L16.234 11.7782C16.1424 11.7182 16.0282 11.6432 15.8982 11.5624C16.0607 11.2324 16.1773 10.8682 16.2348 10.469C16.6115 10.6124 16.8974 10.744 16.9949 10.8065C17.134 10.8914 17.3009 10.9186 17.4598 10.8822C17.6187 10.8459 17.7571 10.7488 17.8455 10.6119C17.9339 10.4749 17.9653 10.3088 17.9329 10.149C17.9006 9.98918 17.8071 9.84836 17.6723 9.75654C17.4099 9.58654 16.839 9.34987 16.2882 9.15821C16.3012 8.7656 16.2889 8.37257 16.2515 7.98154C16.2054 7.48813 16.0699 7.00724 15.8515 6.56237C15.974 6.40154 16.0465 6.22404 16.0932 6.08987C16.209 5.71905 16.2702 5.33334 16.2749 4.94487V3.38071C16.2749 2.54737 15.9815 1.90904 15.4924 1.48737C15.0215 1.08154 14.4324 0.932373 13.9207 0.932373C13.5807 0.932373 13.229 1.06321 12.9448 1.19071C12.6381 1.33517 12.3384 1.49396 12.0465 1.66654L11.869 1.76904L11.8673 1.76987C11.6473 1.89737 11.4523 2.01154 11.2782 2.10071C11.1704 2.15571 11.0854 2.1946 11.0232 2.21737L10.9715 2.23404C10.7908 2.23132 10.6104 2.21685 10.4315 2.19071L10.2965 2.17404C9.86627 2.12264 9.43313 2.09926 8.99985 2.10404C8.35652 2.10404 7.99152 2.13821 7.70318 2.17404L7.56818 2.19071C7.38931 2.21685 7.20893 2.23132 7.02818 2.23404L6.97652 2.21737C6.8894 2.18329 6.80427 2.14434 6.72152 2.10071C6.52253 1.99513 6.32608 1.88482 6.13235 1.76987L5.95318 1.66654C5.66161 1.49426 5.36211 1.33576 5.05568 1.19154C4.77152 1.06321 4.41902 0.932373 4.07902 0.932373ZM4.13485 12.069C4.41318 12.279 4.73402 12.464 5.08818 12.6274C6.36318 13.214 7.93152 13.4324 8.99985 13.4324C10.0682 13.4324 11.6357 13.214 12.9115 12.6274C13.2657 12.464 13.5865 12.279 13.8649 12.069C13.7105 12.0423 13.5718 11.9586 13.4763 11.8345C13.3807 11.7104 13.3352 11.5549 13.3489 11.3988C13.3625 11.2428 13.4342 11.0976 13.5498 10.9919C13.6655 10.8862 13.8165 10.8278 13.9732 10.8282C14.2457 10.8282 14.5249 10.8965 14.7832 10.9907C14.9187 10.7048 14.9988 10.3957 15.019 10.0799C14.853 10.0341 14.6826 10.0056 14.5107 9.99487C14.3449 9.99487 14.186 9.92902 14.0687 9.81181C13.9515 9.6946 13.8857 9.53563 13.8857 9.36987C13.8857 9.20411 13.9515 9.04514 14.0687 8.92793C14.186 8.81072 14.3449 8.74487 14.5107 8.74487C14.6732 8.74487 14.8565 8.76987 15.0415 8.80487C15.0415 8.57487 15.034 8.34904 15.009 8.11737C14.9507 7.57987 14.7982 7.10237 14.439 6.67821C14.2942 6.50953 14.13 6.35849 13.9499 6.22821C13.8161 6.13008 13.7269 5.98285 13.7017 5.81891C13.6766 5.65497 13.7176 5.48775 13.8157 5.35404C13.9138 5.22033 14.061 5.13107 14.225 5.10591C14.3889 5.08075 14.5561 5.12174 14.6898 5.21987C14.7899 5.29321 14.8837 5.36821 14.9715 5.44487C15.0082 5.25487 15.0248 5.05571 15.0248 4.94154V3.38071C15.0248 2.85904 14.8532 2.58654 14.6765 2.43487C14.4832 2.26821 14.2082 2.18237 13.9207 2.18237C13.8624 2.18237 13.7157 2.21487 13.459 2.33071C13.2199 2.43904 12.9523 2.58737 12.6698 2.74987L12.509 2.84321C12.2857 2.97237 12.0548 3.10654 11.8507 3.21154C11.7215 3.27821 11.5873 3.34154 11.4582 3.38987C11.3106 3.4489 11.1537 3.48107 10.9949 3.48487C10.7485 3.48441 10.5026 3.46575 10.259 3.42904L10.1448 3.41487C9.76503 3.36833 9.38246 3.348 8.99985 3.35404C8.40985 3.35404 8.09568 3.38487 7.85568 3.41487L7.74068 3.42904C7.53235 3.45654 7.31485 3.48404 7.00485 3.48404C6.82735 3.48404 6.66152 3.43404 6.54235 3.38987C6.40752 3.33899 6.27614 3.27942 6.14902 3.21154C5.94485 3.10654 5.71402 2.97237 5.49068 2.84321L5.32985 2.74987C5.04735 2.58737 4.77985 2.43821 4.54068 2.33071C4.28402 2.21404 4.13735 2.18237 4.07902 2.18237C3.79235 2.18237 3.51652 2.26821 3.32318 2.43487C3.14652 2.58654 2.97485 2.85987 2.97485 3.38071V4.94071C2.97485 5.05487 2.99152 5.25404 3.02818 5.44404C3.11707 5.36737 3.21096 5.29237 3.30985 5.21904C3.37606 5.17045 3.45119 5.13538 3.53095 5.11582C3.61071 5.09627 3.69355 5.09262 3.77472 5.10508C3.85589 5.11754 3.93382 5.14586 4.00405 5.18843C4.07427 5.23101 4.13543 5.287 4.18402 5.35321C4.23261 5.41941 4.26768 5.49454 4.28723 5.57431C4.30679 5.65407 4.31044 5.7369 4.29798 5.81808C4.28552 5.89925 4.2572 5.97718 4.21462 6.0474C4.17205 6.11763 4.11606 6.17878 4.04985 6.22737C3.85096 6.3746 3.68791 6.5246 3.56068 6.67737C3.20235 7.10237 3.04902 7.57904 2.99068 8.11654C2.96568 8.34821 2.95735 8.57487 2.95735 8.80404C3.14318 8.76821 3.32652 8.74404 3.48902 8.74404C3.65478 8.74404 3.81375 8.80989 3.93096 8.9271C4.04817 9.04431 4.11402 9.20328 4.11402 9.36904C4.11402 9.5348 4.04817 9.69377 3.93096 9.81098C3.81375 9.92819 3.65478 9.99404 3.48902 9.99404C3.40068 9.99404 3.22902 10.019 2.98068 10.079C3.00318 10.4107 3.08485 10.7132 3.21652 10.9899C3.47519 10.8896 3.74919 10.8346 4.02652 10.8274C4.18316 10.8269 4.33425 10.8854 4.44987 10.991C4.5655 11.0967 4.63722 11.242 4.65084 11.398C4.66447 11.5541 4.619 11.7095 4.52344 11.8337C4.42788 11.9578 4.2892 12.0423 4.13485 12.069Z" fill="black" fill-opacity="0.2"/>
</svg>
