<svg width="108" height="25" viewBox="0 0 108 25" fill="none" xmlns="http://www.w3.org/2000/svg">
<path d="M7.07796 2.68304C8.38481 2.49066 9.76918 3.95045 10.1679 5.96473C10.5666 7.9677 9.84671 9.75566 8.53986 9.95935C7.24409 10.163 5.84864 8.70325 5.43887 6.68897C5.02909 4.686 5.77112 2.89805 7.07796 2.68304ZM14.9966 2.68304C16.3145 2.89805 17.0454 4.686 16.6578 6.68897C16.237 8.70325 14.8526 10.163 13.5458 9.95935C12.2278 9.75566 11.508 7.9677 11.9177 5.96473C12.3164 3.95045 13.7008 2.49066 14.9966 2.68304ZM1.15285 7.88849C2.4154 7.33399 4.13202 8.34113 5.02909 10.0951C5.87079 11.8831 5.58284 13.7616 4.33137 14.3161C3.0799 14.8706 1.37435 13.8748 0.499426 12.0981C-0.375498 10.3215 -0.0653983 8.43166 1.15285 7.88849ZM21.0878 7.88849C22.3061 8.43166 22.6162 10.3215 21.7412 12.0981C20.8663 13.8748 19.1608 14.8706 17.9093 14.3161C16.6578 13.7616 16.3699 11.8831 17.2116 10.0951C18.1086 8.34113 19.8253 7.33399 21.0878 7.88849Z" fill="#FF816B"/>
<g clip-path="url(#clip0_483_2887)">
<path fill-rule="evenodd" clip-rule="evenodd" d="M4.92237 17.5002C4.89323 18.9081 5.64229 20.3221 6.84702 20.9364C7.4945 21.2672 8.24399 21.3379 8.94192 21.134C9.57605 20.9568 10.2193 20.5707 10.8477 19.9498C11.4308 20.6134 12.0454 21.043 12.6654 21.2652C13.3473 21.5178 14.0999 21.5 14.769 21.2156C16.014 20.6877 16.8608 19.3299 16.9308 17.9234L16.9311 17.9163C17.0034 15.8642 15.8471 14.003 14.5987 12.681C14.0321 12.077 13.3988 11.5393 12.711 11.0781C12.4168 10.8843 12.1382 10.7275 11.8901 10.6155C11.6534 10.5092 11.4043 10.4256 11.1837 10.4178C10.9631 10.41 10.7096 10.4759 10.466 10.5653C10.2098 10.6587 9.92082 10.7954 9.6146 10.9681C8.89563 11.3799 8.22574 11.872 7.61779 12.435C6.27944 13.6658 4.99495 15.441 4.92265 17.4922L4.92237 17.5002Z" fill="#FF816B"/>
</g>
<path d="M24.8167 6.142C24.9311 6.142 25.0517 6.17376 25.1788 6.23727C25.3185 6.30079 25.4265 6.38337 25.5027 6.485L30.5525 14.1263L29.8855 14.1073L34.9924 6.485C35.1576 6.24363 35.3736 6.12929 35.6403 6.142C35.8436 6.1547 36.0214 6.23092 36.1739 6.37066C36.3263 6.51041 36.4026 6.69461 36.4026 6.92328V18.7187C36.4026 18.9347 36.3263 19.1189 36.1739 19.2713C36.0214 19.4238 35.8309 19.5 35.6022 19.5C35.3736 19.5 35.183 19.4238 35.0306 19.2713C34.8781 19.1189 34.8019 18.9347 34.8019 18.7187V8.37151L35.2783 8.46678L30.7811 15.3078C30.7049 15.3967 30.6096 15.4729 30.4953 15.5364C30.3937 15.5999 30.2857 15.6317 30.1714 15.6317C30.057 15.6317 29.9427 15.5999 29.8284 15.5364C29.714 15.4729 29.6187 15.3967 29.5425 15.3078L25.1026 8.46678L25.5027 7.97134V18.7187C25.5027 18.9347 25.4329 19.1189 25.2931 19.2713C25.1534 19.4238 24.9755 19.5 24.7596 19.5C24.5436 19.5 24.3657 19.4238 24.226 19.2713C24.099 19.1189 24.0354 18.9347 24.0354 18.7187V6.92328C24.0354 6.72002 24.1053 6.54216 24.2451 6.38972C24.3975 6.22457 24.5881 6.142 24.8167 6.142ZM47.5924 9.55296C47.8084 9.55296 47.9862 9.62918 48.1259 9.78162C48.2784 9.92136 48.3546 10.0992 48.3546 10.3152V18.7187C48.3546 18.9347 48.2784 19.1189 48.1259 19.2713C47.9862 19.4238 47.8084 19.5 47.5924 19.5C47.3637 19.5 47.1795 19.4238 47.0398 19.2713C46.9 19.1189 46.8302 18.9347 46.8302 18.7187V16.9084L47.1922 16.8703C47.1922 17.1498 47.0969 17.4547 46.9064 17.785C46.7158 18.1153 46.4554 18.4265 46.1251 18.7187C45.7948 18.9982 45.401 19.2332 44.9437 19.4238C44.499 19.6016 44.0163 19.6906 43.4954 19.6906C42.6316 19.6906 41.8566 19.4682 41.1706 19.0236C40.4846 18.5663 39.9384 17.9501 39.5319 17.1752C39.138 16.4003 38.9411 15.5174 38.9411 14.5265C38.9411 13.5229 39.138 12.64 39.5319 11.8777C39.9384 11.1028 40.4846 10.4994 41.1706 10.0675C41.8566 9.62283 42.6189 9.40051 43.4573 9.40051C44.0036 9.40051 44.5117 9.48944 44.9818 9.66729C45.4518 9.84514 45.8583 10.0865 46.2013 10.3914C46.557 10.6963 46.8302 11.0329 47.0207 11.4014C47.224 11.7698 47.3256 12.1382 47.3256 12.5066L46.8302 12.3922V10.3152C46.8302 10.0992 46.9 9.92136 47.0398 9.78162C47.1795 9.62918 47.3637 9.55296 47.5924 9.55296ZM43.6669 18.2804C44.3021 18.2804 44.8611 18.1153 45.3438 17.785C45.8393 17.4547 46.2204 17.0101 46.4872 16.4511C46.7666 15.8794 46.9064 15.2379 46.9064 14.5265C46.9064 13.8278 46.7666 13.1989 46.4872 12.64C46.2204 12.0683 45.8393 11.6237 45.3438 11.3061C44.8611 10.9758 44.3021 10.8106 43.6669 10.8106C43.0444 10.8106 42.4855 10.9694 41.99 11.287C41.5073 11.6046 41.1262 12.0429 40.8467 12.6019C40.5672 13.1608 40.4275 13.8024 40.4275 14.5265C40.4275 15.2379 40.5609 15.8794 40.8276 16.4511C41.1071 17.0101 41.4882 17.4547 41.971 17.785C42.4664 18.1153 43.0317 18.2804 43.6669 18.2804ZM50.7986 9.7054H55.2767C55.48 9.7054 55.6451 9.77527 55.7722 9.91501C55.9119 10.0548 55.9818 10.2199 55.9818 10.4105C55.9818 10.6137 55.9119 10.7852 55.7722 10.925C55.6451 11.052 55.48 11.1155 55.2767 11.1155H50.7986C50.6081 11.1155 50.4429 11.0456 50.3032 10.9059C50.1635 10.7662 50.0936 10.5947 50.0936 10.3914C50.0936 10.2008 50.1635 10.0421 50.3032 9.91501C50.4429 9.77527 50.6081 9.7054 50.7986 9.7054ZM52.7995 7.11383C53.0155 7.11383 53.1933 7.19006 53.333 7.3425C53.4728 7.48224 53.5427 7.6601 53.5427 7.87606V17.0799C53.5427 17.3848 53.5871 17.6135 53.676 17.7659C53.765 17.9184 53.8793 18.0264 54.019 18.0899C54.1715 18.1407 54.3176 18.1661 54.4573 18.1661C54.5844 18.1661 54.6923 18.147 54.7813 18.1089C54.8829 18.0581 54.9972 18.0327 55.1243 18.0327C55.2513 18.0327 55.3656 18.0962 55.4673 18.2233C55.5816 18.3376 55.6388 18.4901 55.6388 18.6806C55.6388 18.9093 55.5054 19.1062 55.2386 19.2713C54.9718 19.4238 54.6733 19.5 54.343 19.5C54.1651 19.5 53.9428 19.4873 53.676 19.4619C53.422 19.4365 53.1679 19.3539 52.9138 19.2142C52.6597 19.0744 52.4438 18.8458 52.2659 18.5282C52.1008 18.1979 52.0182 17.7405 52.0182 17.1562V7.87606C52.0182 7.6601 52.0944 7.48224 52.2469 7.3425C52.3993 7.19006 52.5835 7.11383 52.7995 7.11383ZM62.3921 9.40051C63.04 9.40051 63.6243 9.47038 64.1452 9.61012C64.666 9.74986 65.0789 9.94042 65.3838 10.1818C65.6887 10.4232 65.8411 10.6963 65.8411 11.0012C65.8411 11.1663 65.784 11.3251 65.6696 11.4776C65.5553 11.63 65.4029 11.7062 65.2123 11.7062C65.0344 11.7062 64.8884 11.6745 64.774 11.611C64.6724 11.5474 64.5708 11.4649 64.4691 11.3632C64.3802 11.2616 64.2532 11.1727 64.088 11.0965C63.9356 11.0075 63.7133 10.9377 63.4211 10.8869C63.1289 10.836 62.8367 10.8106 62.5445 10.8106C61.8458 10.8106 61.2297 10.9758 60.6961 11.3061C60.1753 11.6364 59.7624 12.081 59.4575 12.64C59.1526 13.1989 59.0002 13.8341 59.0002 14.5455C59.0002 15.2569 59.1463 15.8921 59.4384 16.4511C59.7306 17.0101 60.1371 17.4547 60.658 17.785C61.1789 18.1153 61.7823 18.2804 62.4683 18.2804C62.9129 18.2804 63.2686 18.2423 63.5354 18.1661C63.8022 18.0899 64.0245 18.001 64.2024 17.8993C64.431 17.7723 64.6025 17.6453 64.7169 17.5182C64.8439 17.3912 65.009 17.3277 65.2123 17.3277C65.4283 17.3277 65.5934 17.3975 65.7077 17.5373C65.8348 17.677 65.8983 17.8485 65.8983 18.0518C65.8983 18.2804 65.7395 18.5218 65.4219 18.7759C65.1043 19.03 64.6724 19.2459 64.1261 19.4238C63.5926 19.6016 62.9828 19.6906 62.2968 19.6906C61.3313 19.6906 60.4865 19.4682 59.7624 19.0236C59.0383 18.5663 58.473 17.9501 58.0664 17.1752C57.6726 16.3876 57.4757 15.511 57.4757 14.5455C57.4757 13.58 57.679 12.7098 58.0855 11.9349C58.5047 11.16 59.0827 10.5438 59.8196 10.0865C60.5564 9.62918 61.4139 9.40051 62.3921 9.40051ZM72.6546 9.49579C73.493 9.49579 74.1536 9.67999 74.6364 10.0484C75.1318 10.4041 75.4812 10.8869 75.6844 11.4966C75.9004 12.0937 76.0084 12.7607 76.0084 13.4975V18.7187C76.0084 18.9347 75.9321 19.1189 75.7797 19.2713C75.64 19.4238 75.4621 19.5 75.2461 19.5C75.0302 19.5 74.846 19.4238 74.6935 19.2713C74.5538 19.1189 74.4839 18.9347 74.4839 18.7187V13.4975C74.4839 13.0147 74.414 12.5828 74.2743 12.2017C74.1346 11.8079 73.8995 11.4966 73.5692 11.268C73.2516 11.0266 72.8134 10.9059 72.2544 10.9059C71.7335 10.9059 71.2572 11.0266 70.8252 11.268C70.3933 11.4966 70.0503 11.8079 69.7962 12.2017C69.5422 12.5828 69.4151 13.0147 69.4151 13.4975V18.7187C69.4151 18.9347 69.3389 19.1189 69.1864 19.2713C69.0467 19.4238 68.8689 19.5 68.6529 19.5C68.4369 19.5 68.2527 19.4238 68.1003 19.2713C67.9605 19.1189 67.8907 18.9347 67.8907 18.7187V6.16105C67.8907 5.94509 67.9605 5.76724 68.1003 5.62749C68.2527 5.47505 68.4369 5.39883 68.6529 5.39883C68.8816 5.39883 69.0658 5.47505 69.2055 5.62749C69.3452 5.76724 69.4151 5.94509 69.4151 6.16105V11.8587L69.034 12.2779C69.0975 11.9476 69.2373 11.6173 69.4532 11.287C69.6692 10.944 69.9423 10.6391 70.2726 10.3723C70.6029 10.1056 70.9713 9.89596 71.3778 9.74351C71.7844 9.57836 72.2099 9.49579 72.6546 9.49579Z" fill="#FF816B"/>
<path d="M84.3398 6.16105C85.0131 6.16105 85.6356 6.34526 86.2073 6.71367C86.779 7.06937 87.2363 7.55847 87.5793 8.18095C87.9223 8.80343 88.0938 9.50214 88.0938 10.2771C88.0938 11.052 87.9223 11.7571 87.5793 12.3922C87.2363 13.0147 86.779 13.5165 86.2073 13.8976C85.6356 14.2661 85.0131 14.4503 84.3398 14.4503H80.6621L80.8146 14.1454V18.5282C80.8146 18.8076 80.7256 19.0427 80.5478 19.2332C80.3826 19.4111 80.1603 19.5 79.8808 19.5C79.614 19.5 79.3917 19.4111 79.2139 19.2332C79.0487 19.0427 78.9662 18.8076 78.9662 18.5282V7.13289C78.9662 6.85341 79.0614 6.62474 79.252 6.44689C79.4425 6.25633 79.6712 6.16105 79.938 6.16105H84.3398ZM84.3398 12.6209C84.6701 12.6209 84.9687 12.5129 85.2355 12.297C85.5149 12.081 85.7373 11.7952 85.9024 11.4395C86.0803 11.0838 86.1692 10.6963 86.1692 10.2771C86.1692 9.85785 86.0803 9.47673 85.9024 9.13373C85.7373 8.79073 85.5149 8.5176 85.2355 8.31434C84.9687 8.09838 84.6701 7.99039 84.3398 7.99039H80.624L80.8146 7.70456V12.8686L80.6431 12.6209H84.3398ZM94.6836 19.6906C93.6292 19.6906 92.7146 19.4746 91.9396 19.0427C91.1647 18.598 90.5613 17.9946 90.1293 17.2324C89.7101 16.4574 89.5005 15.5745 89.5005 14.5836C89.5005 13.4657 89.7228 12.5129 90.1674 11.7253C90.6248 10.925 91.2155 10.3152 91.9396 9.89596C92.6637 9.46403 93.4323 9.24807 94.2454 9.24807C94.8678 9.24807 95.4586 9.3751 96.0175 9.62918C96.5765 9.87055 97.0719 10.2136 97.5039 10.6582C97.9485 11.0901 98.2979 11.6046 98.5519 12.2017C98.806 12.7861 98.9394 13.4276 98.9521 14.1263C98.9394 14.3804 98.8378 14.59 98.6472 14.7551C98.4566 14.9203 98.2343 15.0029 97.9803 15.0029H90.5676L90.1103 13.3831H97.2752L96.9131 13.7261V13.2498C96.8877 12.8051 96.7416 12.4177 96.4749 12.0874C96.2081 11.7444 95.8778 11.4839 95.484 11.3061C95.0902 11.1155 94.6773 11.0202 94.2454 11.0202C93.8642 11.0202 93.4958 11.0838 93.1401 11.2108C92.7971 11.3251 92.4859 11.5157 92.2064 11.7825C91.9396 12.0492 91.7237 12.405 91.5585 12.8496C91.4061 13.2815 91.3298 13.8214 91.3298 14.4693C91.3298 15.168 91.4759 15.7778 91.7681 16.2987C92.0603 16.8195 92.4541 17.226 92.9496 17.5182C93.445 17.7977 93.9913 17.9374 94.5884 17.9374C95.0584 17.9374 95.4459 17.893 95.7507 17.804C96.0556 17.7024 96.3097 17.5817 96.513 17.442C96.7162 17.3022 96.8941 17.1689 97.0465 17.0418C97.2371 16.9275 97.4276 16.8703 97.6182 16.8703C97.8469 16.8703 98.0374 16.9529 98.1899 17.118C98.3423 17.2705 98.4185 17.4547 98.4185 17.6707C98.4185 17.9501 98.2788 18.2042 97.9993 18.4329C97.6563 18.7632 97.1799 19.0554 96.5701 19.3094C95.9731 19.5635 95.3442 19.6906 94.6836 19.6906ZM100.973 9.59107H105.451C105.705 9.59107 105.914 9.67999 106.08 9.85785C106.257 10.023 106.346 10.2326 106.346 10.4867C106.346 10.7281 106.257 10.9313 106.08 11.0965C105.914 11.2616 105.705 11.3442 105.451 11.3442H100.973C100.719 11.3442 100.503 11.2616 100.325 11.0965C100.16 10.9186 100.077 10.709 100.077 10.4676C100.077 10.2136 100.16 10.0039 100.325 9.83879C100.503 9.67364 100.719 9.59107 100.973 9.59107ZM102.973 7.11383C103.253 7.11383 103.482 7.20911 103.659 7.39967C103.837 7.57752 103.926 7.80619 103.926 8.08567V16.9275C103.926 17.1562 103.964 17.3404 104.041 17.4801C104.117 17.6198 104.218 17.7151 104.345 17.7659C104.485 17.8168 104.625 17.8422 104.765 17.8422C104.904 17.8422 105.025 17.8168 105.127 17.7659C105.241 17.7151 105.374 17.6897 105.527 17.6897C105.679 17.6897 105.819 17.7596 105.946 17.8993C106.073 18.0391 106.137 18.2296 106.137 18.471C106.137 18.7759 105.972 19.0236 105.641 19.2142C105.311 19.4047 104.955 19.5 104.574 19.5C104.358 19.5 104.104 19.4809 103.812 19.4428C103.52 19.4047 103.234 19.3094 102.954 19.157C102.688 19.0046 102.465 18.7632 102.287 18.4329C102.11 18.0899 102.021 17.6135 102.021 17.0037V8.08567C102.021 7.80619 102.11 7.57752 102.287 7.39967C102.478 7.20911 102.707 7.11383 102.973 7.11383Z" fill="#2E1559"/>
<defs>
<clipPath id="clip0_483_2887">
<rect width="12.4609" height="12.4609" fill="white" transform="translate(4.8652 9.87305)"/>
</clipPath>
</defs>
</svg>
